<svg width="177" height="105" viewBox="0 0 177 105" fill="none" xmlns="http://www.w3.org/2000/svg">
<g clip-path="url(#clip0_1017_2102)">
<path fill-rule="evenodd" clip-rule="evenodd" d="M79.8 74.65C83.1 84.37 96.9 84.72 100 74.65C103.65 77.94 114.46 78.59 118.48 80.84C119.75 81.55 120.9 82.45 121.82 83.67C122.44 84.49 123.27 86 123.89 87.69H55.9C56.53 86 57.35 84.49 57.97 83.67C58.89 82.45 60.04 81.55 61.31 80.84C65.34 78.6 76.15 77.94 79.8 74.65ZM77.51 0H102.3C103.37 0 104.24 0.87 104.24 1.94V19.35C104.24 20.42 103.37 21.29 102.3 21.29H77.51C76.44 21.29 75.57 20.42 75.57 19.35V1.94C75.57 0.87 76.44 0 77.51 0ZM103.09 5.43H76.8V19.54C76.8 19.69 76.86 19.82 76.96 19.92C77.06 20.02 77.19 20.08 77.34 20.08H102.55C102.7 20.08 102.83 20.02 102.93 19.92C103.03 19.82 103.09 19.69 103.09 19.54V5.43ZM100.45 2.18C100.98 2.18 101.41 2.61 101.41 3.14C101.41 3.67 100.98 4.1 100.45 4.1C99.92 4.1 99.49 3.67 99.49 3.14C99.49 2.61 99.92 2.18 100.45 2.18ZM93.95 2.18C94.48 2.18 94.91 2.61 94.91 3.14C94.91 3.67 94.48 4.1 93.95 4.1C93.42 4.1 92.99 3.67 92.99 3.14C92.99 2.61 93.42 2.18 93.95 2.18ZM97.2 2.18C97.73 2.18 98.16 2.61 98.16 3.14C98.16 3.67 97.73 4.1 97.2 4.1C96.67 4.1 96.24 3.67 96.24 3.14C96.24 2.61 96.67 2.18 97.2 2.18ZM86.36 11.38L83.2 12.57L86.36 13.77V16.55L81.45 13.77V11.38L86.36 8.6V11.38ZM98.36 11.38V13.77L93.45 16.55V13.77L96.61 12.57L93.45 11.38V8.59L98.36 11.38ZM89.85 17.33H87.76L90.34 7.27H92.43L89.85 17.33ZM146.89 55.64C146.93 55.64 146.97 55.64 147.01 55.65C147.26 55.21 147.49 54.74 147.71 54.25C147.72 54.24 147.72 54.23 147.73 54.23C148.04 53.48 148.29 52.71 148.44 51.91C148.56 51.29 148.65 50.65 148.67 50H144.91C144.84 51.91 144.27 53.79 143.21 55.64H146.89ZM146.24 56.84H142.46C141.31 58.51 139.76 60.15 137.83 61.77C138.13 61.73 138.44 61.68 138.73 61.62C139.54 61.46 140.32 61.22 141.08 60.89C141.84 60.56 142.56 60.18 143.22 59.73C143.88 59.29 144.49 58.79 145.06 58.22C145.48 57.79 145.89 57.33 146.24 56.84ZM134.6 61.77C132.66 60.15 131.11 58.51 129.97 56.84H126.19C126.55 57.33 126.95 57.79 127.39 58.23C127.96 58.8 128.56 59.3 129.23 59.74C129.89 60.18 130.6 60.57 131.37 60.9C131.38 60.91 131.39 60.91 131.39 60.92C132.14 61.23 132.91 61.48 133.71 61.63C134 61.68 134.3 61.72 134.6 61.77ZM125.4 55.64H129.21C128.15 53.79 127.58 51.9 127.51 50H123.75C123.78 50.66 123.86 51.29 123.98 51.91C124.14 52.72 124.38 53.5 124.71 54.26C124.91 54.74 125.14 55.2 125.4 55.64ZM123.75 48.8H127.53C127.67 46.93 128.29 45.05 129.4 43.16H125.4C125.15 43.6 124.92 44.06 124.71 44.55C124.7 44.56 124.7 44.57 124.69 44.57C124.38 45.32 124.13 46.09 123.98 46.89C123.85 47.51 123.77 48.14 123.75 48.8ZM126.18 41.96H130.17C131.31 40.32 132.81 38.67 134.68 37.01C134.34 37.05 134.02 37.1 133.7 37.17C132.89 37.33 132.11 37.57 131.35 37.9C130.59 38.23 129.87 38.61 129.21 39.06C128.55 39.5 127.94 40 127.37 40.57C126.94 41 126.54 41.46 126.18 41.96ZM137.73 37.01C139.61 38.67 141.11 40.32 142.24 41.96H146.23C145.87 41.47 145.47 41.01 145.03 40.57C144.46 40 143.86 39.5 143.19 39.06C142.53 38.62 141.82 38.23 141.05 37.9C141.04 37.89 141.03 37.89 141.03 37.88C140.28 37.57 139.51 37.32 138.71 37.17C138.39 37.11 138.06 37.06 137.73 37.01ZM147.02 43.16H143.02C144.13 45.05 144.75 46.93 144.89 48.8H148.67C148.64 48.14 148.56 47.51 148.44 46.89C148.28 46.08 148.04 45.3 147.71 44.54C147.5 44.06 147.27 43.6 147.02 43.16ZM133.46 35.99C134.35 35.81 135.26 35.72 136.21 35.72C137.15 35.72 138.06 35.81 138.96 35.99C139.84 36.16 140.68 36.42 141.51 36.78C141.52 36.78 141.53 36.79 141.54 36.8C142.36 37.15 143.14 37.58 143.87 38.06C144.6 38.54 145.27 39.1 145.89 39.72C146.51 40.34 147.06 41.01 147.55 41.74C148.04 42.47 148.46 43.25 148.81 44.07C149.17 44.91 149.43 45.77 149.61 46.65C149.79 47.54 149.88 48.45 149.88 49.4C149.88 50.34 149.79 51.25 149.61 52.15C149.44 53.03 149.18 53.87 148.82 54.7C148.82 54.71 148.81 54.72 148.8 54.73C148.45 55.56 148.02 56.33 147.54 57.06C147.06 57.79 146.5 58.46 145.88 59.08C145.26 59.7 144.59 60.25 143.86 60.74C143.13 61.23 142.35 61.65 141.53 62C140.69 62.36 139.83 62.62 138.95 62.8C138.06 62.98 137.15 63.07 136.2 63.07C135.26 63.07 134.35 62.98 133.45 62.8C132.57 62.63 131.73 62.37 130.9 62.01C130.89 62.01 130.88 62 130.87 61.99C130.05 61.64 129.27 61.21 128.54 60.73C127.81 60.25 127.14 59.69 126.52 59.07C125.9 58.45 125.35 57.78 124.86 57.05C124.37 56.32 123.95 55.54 123.6 54.72C123.24 53.88 122.98 53.02 122.8 52.14C122.62 51.25 122.53 50.34 122.53 49.39C122.53 48.45 122.62 47.54 122.8 46.64C122.97 45.76 123.23 44.92 123.59 44.09C123.59 44.08 123.6 44.07 123.61 44.06C123.96 43.23 124.39 42.46 124.87 41.73C125.35 41 125.91 40.33 126.53 39.71C127.15 39.09 127.82 38.54 128.55 38.05C129.28 37.56 130.06 37.14 130.88 36.79C131.71 36.44 132.57 36.18 133.46 35.99ZM136.81 37.79V41.96H140.78C139.73 40.58 138.41 39.19 136.81 37.79ZM136.81 43.16V48.8H143.69C143.53 46.95 142.84 45.07 141.61 43.16H136.81ZM136.81 50V55.64H141.82C143.01 53.77 143.64 51.89 143.71 50H136.81ZM136.81 56.84V61.06C138.51 59.67 139.9 58.26 140.98 56.84H136.81ZM135.61 61.05V56.83H131.44C132.51 58.25 133.9 59.66 135.61 61.05ZM135.61 55.64V50H128.7C128.77 51.89 129.41 53.77 130.59 55.64H135.61ZM135.61 48.8V43.16H130.8C129.57 45.07 128.88 46.95 128.73 48.8H135.61ZM135.61 41.96V37.79C134 39.19 132.68 40.58 131.64 41.96H135.61ZM36.43 49.4L32 42.97C32.78 42.03 33.46 41.03 34.05 39.98C34.66 38.89 35.17 37.75 35.61 36.56L43.41 37.31L36.43 49.4ZM37.89 50.28L44.9 38.13L56.99 45.11L56.03 46.77L46.41 41.22C45.89 40.92 45.21 41.1 44.91 41.62C44.61 42.14 44.79 42.82 45.31 43.12L54.93 48.67L54.03 50.22L44.41 44.67C43.89 44.37 43.21 44.55 42.91 45.07C42.61 45.59 42.79 46.27 43.31 46.57L52.93 52.12L52.03 53.67L42.41 48.12C41.89 47.82 41.21 48 40.91 48.52C40.61 49.04 40.79 49.72 41.31 50.02L50.93 55.57L49.97 57.23L37.89 50.28ZM30.48 40.78L27 35.73L32.97 36.31C32.63 37.15 32.25 37.96 31.82 38.73C31.43 39.45 30.98 40.13 30.48 40.78ZM44.37 84.16C44.88 85.3 44.37 86.64 43.22 87.15C42.08 87.66 40.74 87.15 40.23 86C38.96 83.16 37.92 80.21 37.16 77.16C36.41 74.17 35.91 71.07 35.68 67.9C35.59 66.65 36.53 65.56 37.79 65.47C39.04 65.38 40.13 66.32 40.22 67.58C40.43 70.48 40.89 73.31 41.57 76.05C42.27 78.88 43.22 81.58 44.37 84.16ZM53.91 30C52.98 30.83 51.55 30.75 50.71 29.82C49.88 28.89 49.96 27.46 50.89 26.62C53.01 24.73 55.49 22.79 58.05 21.12C60.35 19.62 62.72 18.33 64.98 17.45C66.15 17 67.46 17.58 67.91 18.75C68.36 19.92 67.78 21.23 66.61 21.68C64.66 22.43 62.57 23.58 60.51 24.92C58.15 26.47 55.85 28.26 53.91 30ZM112.7 20.39C111.62 19.76 111.26 18.37 111.89 17.29C112.52 16.21 113.91 15.85 114.99 16.48C117.53 17.96 119.94 19.66 122.19 21.53C124.46 23.41 126.57 25.48 128.49 27.69C129.31 28.64 129.21 30.07 128.26 30.89C127.31 31.71 125.88 31.61 125.06 30.66C123.29 28.62 121.36 26.73 119.3 25.01C117.24 23.31 115.03 21.76 112.7 20.39ZM137.86 70.57C138.02 69.33 139.16 68.45 140.4 68.62C141.64 68.79 142.52 69.92 142.35 71.16C142.01 73.72 141.5 76.21 140.82 78.61C140.13 81.08 139.26 83.46 138.25 85.76C137.74 86.91 136.4 87.43 135.26 86.92C134.11 86.41 133.59 85.07 134.1 83.93C135.04 81.81 135.83 79.63 136.46 77.39C137.08 75.16 137.56 72.88 137.86 70.57ZM77.27 54.51C76.58 54.54 76.05 54.68 75.7 54.92C75.5 55.06 75.35 55.23 75.25 55.44C75.14 55.67 75.09 55.95 75.1 56.28C75.13 57.23 75.63 58.47 76.59 59.9L76.6 59.92L79.72 64.89C80.97 66.88 82.29 68.91 83.92 70.4C85.49 71.83 87.39 72.81 89.91 72.81C92.64 72.82 94.63 71.81 96.25 70.29C97.93 68.71 99.26 66.55 100.57 64.4L104.09 58.6C104.75 57.1 104.98 56.1 104.83 55.51C104.74 55.16 104.35 54.99 103.7 54.96C103.56 54.95 103.42 54.95 103.27 54.96C103.11 54.96 102.95 54.98 102.78 54.99C102.69 55 102.6 54.99 102.51 54.97C102.2 54.99 101.87 54.97 101.55 54.92L102.76 50.08C93.82 51.49 87.13 44.85 77.68 48.75L78.36 54.54C77.96 54.58 77.6 54.56 77.27 54.51ZM104.9 53.39C105.77 53.65 106.32 54.2 106.55 55.09C106.8 56.07 106.53 57.46 105.69 59.36C105.67 59.39 105.66 59.43 105.64 59.46L102.08 65.32C100.71 67.58 99.31 69.84 97.46 71.59C95.53 73.39 93.16 74.59 89.92 74.58C86.89 74.57 84.61 73.41 82.74 71.7C80.93 70.05 79.55 67.91 78.24 65.83L75.12 60.86C73.98 59.16 73.38 57.6 73.35 56.32C73.33 55.72 73.43 55.17 73.66 54.69C73.89 54.19 74.25 53.77 74.73 53.44C74.96 53.29 75.21 53.16 75.49 53.05C75.29 50.36 75.21 47.46 75.34 44.62C75.41 43.95 75.54 43.27 75.73 42.6C76.53 39.75 78.53 38.44 81.01 36.87C82.38 36 83.87 35.34 85.44 34.9C86.43 34.62 84.6 31.45 85.62 31.34C90.58 30.83 98.6 35.36 102.07 39.1C103.8 40.98 104.89 42.47 105.13 45.76L104.9 53.39Z" fill="#264754"/>
</g>
<path d="M6.53764 94.6172C6.49124 94.183 6.29569 93.8449 5.95099 93.603C5.60961 93.361 5.16548 93.2401 4.61861 93.2401C4.23414 93.2401 3.90436 93.2981 3.62926 93.4141C3.35417 93.5301 3.1437 93.6875 2.99787 93.8864C2.85204 94.0852 2.77746 94.3123 2.77415 94.5675C2.77415 94.7796 2.82221 94.9635 2.91832 95.1193C3.01776 95.2751 3.15199 95.4077 3.32102 95.517C3.49006 95.6231 3.67732 95.7126 3.88281 95.7855C4.08831 95.8584 4.29545 95.9197 4.50426 95.9695L5.45881 96.2081C5.84328 96.2976 6.21283 96.4186 6.56747 96.571C6.92543 96.7235 7.24527 96.9157 7.52699 97.1477C7.81203 97.3797 8.03741 97.6598 8.20312 97.9879C8.36884 98.3161 8.4517 98.7005 8.4517 99.1413C8.4517 99.7379 8.29924 100.263 7.99432 100.717C7.68939 101.168 7.24858 101.521 6.67188 101.776C6.09848 102.028 5.40412 102.154 4.58878 102.154C3.79664 102.154 3.1089 102.031 2.52557 101.786C1.94555 101.541 1.49148 101.183 1.16335 100.712C0.838542 100.242 0.662879 99.6683 0.636364 98.9922H2.45099C2.47751 99.3468 2.58688 99.6418 2.77912 99.8771C2.97135 100.112 3.22159 100.288 3.52983 100.404C3.84138 100.52 4.18939 100.578 4.57386 100.578C4.97491 100.578 5.32623 100.518 5.62784 100.399C5.93277 100.277 6.1714 100.107 6.34375 99.892C6.5161 99.6733 6.60393 99.4181 6.60724 99.1264C6.60393 98.8613 6.52604 98.6425 6.37358 98.4702C6.22112 98.2945 6.00734 98.1487 5.73224 98.0327C5.46046 97.9134 5.14228 97.8073 4.7777 97.7145L3.61932 97.4162C2.78078 97.2008 2.1179 96.8743 1.63068 96.4368C1.14678 95.996 0.90483 95.411 0.90483 94.6818C0.90483 94.0819 1.06723 93.5566 1.39205 93.1058C1.72017 92.6551 2.16596 92.3054 2.7294 92.0568C3.29285 91.8049 3.93087 91.679 4.64347 91.679C5.366 91.679 5.99905 91.8049 6.54261 92.0568C7.08949 92.3054 7.5187 92.6518 7.83026 93.0959C8.14181 93.5367 8.30256 94.0438 8.3125 94.6172H6.53764ZM12.214 102.154C11.7301 102.154 11.2942 102.068 10.9064 101.896C10.522 101.72 10.217 101.461 9.99165 101.12C9.76959 100.779 9.65856 100.358 9.65856 99.8572C9.65856 99.4264 9.7381 99.0701 9.89719 98.7884C10.0563 98.5066 10.2734 98.2812 10.5485 98.1122C10.8236 97.9432 11.1335 97.8156 11.4782 97.7294C11.8262 97.6399 12.1858 97.5753 12.557 97.5355C13.0044 97.4891 13.3674 97.4477 13.6458 97.4112C13.9242 97.3714 14.1264 97.3118 14.2523 97.2322C14.3816 97.1494 14.4462 97.0218 14.4462 96.8494V96.8196C14.4462 96.4451 14.3352 96.1551 14.1131 95.9496C13.891 95.7441 13.5712 95.6413 13.1536 95.6413C12.7128 95.6413 12.3631 95.7375 12.1046 95.9297C11.8494 96.1219 11.677 96.349 11.5875 96.6108L9.90714 96.3722C10.0397 95.9081 10.2585 95.5204 10.5634 95.2088C10.8683 94.8939 11.2412 94.6586 11.682 94.5028C12.1228 94.3438 12.61 94.2642 13.1436 94.2642C13.5115 94.2642 13.8778 94.3073 14.2424 94.3935C14.6069 94.4796 14.94 94.6222 15.2417 94.821C15.5433 95.0166 15.7852 95.2834 15.9675 95.6214C16.1531 95.9595 16.2459 96.3821 16.2459 96.8892V102H14.5158V100.951H14.4561C14.3468 101.163 14.1926 101.362 13.9938 101.548C13.7982 101.73 13.5513 101.877 13.253 101.99C12.958 102.099 12.6117 102.154 12.214 102.154ZM12.6813 100.832C13.0426 100.832 13.3558 100.76 13.6209 100.618C13.8861 100.472 14.0899 100.28 14.2324 100.041C14.3783 99.8026 14.4512 99.5424 14.4512 99.2607V98.3608C14.3948 98.4072 14.2987 98.4503 14.1628 98.4901C14.0302 98.5298 13.8811 98.5646 13.7154 98.5945C13.5497 98.6243 13.3856 98.6508 13.2232 98.674C13.0608 98.6972 12.9199 98.7171 12.8006 98.7337C12.5321 98.7701 12.2918 98.8298 12.0797 98.9126C11.8676 98.9955 11.7002 99.1115 11.5776 99.2607C11.455 99.4065 11.3936 99.5954 11.3936 99.8274C11.3936 100.159 11.5146 100.409 11.7566 100.578C11.9985 100.747 12.3068 100.832 12.6813 100.832ZM22.9228 98.7884V94.3636H24.7225V102H22.9775V100.643H22.8979C22.7256 101.07 22.4422 101.42 22.0478 101.692C21.6567 101.964 21.1744 102.099 20.601 102.099C20.1006 102.099 19.6581 101.988 19.2736 101.766C18.8925 101.541 18.5942 101.214 18.3787 100.787C18.1633 100.356 18.0556 99.8357 18.0556 99.2259V94.3636H19.8553V98.9474C19.8553 99.4313 19.9879 99.8158 20.253 100.101C20.5182 100.386 20.8662 100.528 21.2971 100.528C21.5622 100.528 21.8191 100.464 22.0676 100.335C22.3162 100.205 22.5201 100.013 22.6792 99.7578C22.8416 99.4993 22.9228 99.1761 22.9228 98.7884ZM29.407 102.134C28.8071 102.134 28.2701 101.98 27.7962 101.672C27.3222 101.364 26.9477 100.916 26.6726 100.33C26.3975 99.7429 26.2599 99.0303 26.2599 98.1918C26.2599 97.3433 26.3991 96.6274 26.6776 96.044C26.9593 95.4574 27.3388 95.0149 27.8161 94.7166C28.2933 94.415 28.8253 94.2642 29.4119 94.2642C29.8594 94.2642 30.2273 94.3404 30.5156 94.4929C30.804 94.642 31.0327 94.8227 31.2017 95.0348C31.3707 95.2436 31.5017 95.4408 31.5945 95.6264H31.669V91.8182H33.4737V102H31.7038V100.797H31.5945C31.5017 100.982 31.3674 101.18 31.1918 101.388C31.0161 101.594 30.7841 101.77 30.4957 101.915C30.2074 102.061 29.8445 102.134 29.407 102.134ZM29.9091 100.658C30.2902 100.658 30.6151 100.555 30.8835 100.349C31.152 100.141 31.3558 99.8506 31.495 99.4794C31.6342 99.1082 31.7038 98.6757 31.7038 98.1818C31.7038 97.688 31.6342 97.2588 31.495 96.8942C31.3591 96.5296 31.157 96.2462 30.8885 96.044C30.6233 95.8419 30.2969 95.7408 29.9091 95.7408C29.508 95.7408 29.1733 95.8452 28.9048 96.054C28.6364 96.2628 28.4342 96.5511 28.2983 96.919C28.1624 97.2869 28.0945 97.7079 28.0945 98.1818C28.0945 98.6591 28.1624 99.085 28.2983 99.4595C28.4375 99.8307 28.6413 100.124 28.9098 100.339C29.1816 100.552 29.5147 100.658 29.9091 100.658ZM38.9437 102V91.8182H45.4664V93.3643H40.7882V96.1286H45.019V97.6747H40.7882V102H38.9437ZM51.456 98.7884V94.3636H53.2557V102H51.5107V100.643H51.4311C51.2588 101.07 50.9754 101.42 50.581 101.692C50.1899 101.964 49.7076 102.099 49.1342 102.099C48.6338 102.099 48.1913 101.988 47.8068 101.766C47.4257 101.541 47.1274 101.214 46.9119 100.787C46.6965 100.356 46.5888 99.8357 46.5888 99.2259V94.3636H48.3885V98.9474C48.3885 99.4313 48.5211 99.8158 48.7862 100.101C49.0514 100.386 49.3994 100.528 49.8303 100.528C50.0954 100.528 50.3523 100.464 50.6009 100.335C50.8494 100.205 51.0533 100.013 51.2124 99.7578C51.3748 99.4993 51.456 99.1761 51.456 98.7884ZM56.9061 91.8182V102H55.1064V91.8182H56.9061ZM60.5565 91.8182V102H58.7567V91.8182H60.5565ZM71.4927 94.6172C71.4463 94.183 71.2508 93.8449 70.9061 93.603C70.5647 93.361 70.1206 93.2401 69.5737 93.2401C69.1892 93.2401 68.8594 93.2981 68.5843 93.4141C68.3092 93.5301 68.0988 93.6875 67.9529 93.8864C67.8071 94.0852 67.7325 94.3123 67.7292 94.5675C67.7292 94.7796 67.7773 94.9635 67.8734 95.1193C67.9728 95.2751 68.1071 95.4077 68.2761 95.517C68.4451 95.6231 68.6324 95.7126 68.8379 95.7855C69.0434 95.8584 69.2505 95.9197 69.4593 95.9695L70.4139 96.2081C70.7984 96.2976 71.1679 96.4186 71.5225 96.571C71.8805 96.7235 72.2003 96.9157 72.4821 97.1477C72.7671 97.3797 72.9925 97.6598 73.1582 97.9879C73.3239 98.3161 73.4068 98.7005 73.4068 99.1413C73.4068 99.7379 73.2543 100.263 72.9494 100.717C72.6445 101.168 72.2037 101.521 71.627 101.776C71.0536 102.028 70.3592 102.154 69.5439 102.154C68.7517 102.154 68.064 102.031 67.4806 101.786C66.9006 101.541 66.4466 101.183 66.1184 100.712C65.7936 100.242 65.618 99.6683 65.5914 98.9922H67.4061C67.4326 99.3468 67.542 99.6418 67.7342 99.8771C67.9264 100.112 68.1767 100.288 68.4849 100.404C68.7965 100.52 69.1445 100.578 69.5289 100.578C69.93 100.578 70.2813 100.518 70.5829 100.399C70.8878 100.277 71.1265 100.107 71.2988 99.892C71.4712 99.6733 71.559 99.4181 71.5623 99.1264C71.559 98.8613 71.4811 98.6425 71.3287 98.4702C71.1762 98.2945 70.9624 98.1487 70.6873 98.0327C70.4155 97.9134 70.0974 97.8073 69.7328 97.7145L68.5744 97.4162C67.7359 97.2008 67.073 96.8743 66.5858 96.4368C66.1019 95.996 65.8599 95.411 65.8599 94.6818C65.8599 94.0819 66.0223 93.5566 66.3471 93.1058C66.6752 92.6551 67.121 92.3054 67.6845 92.0568C68.2479 91.8049 68.8859 91.679 69.5985 91.679C70.3211 91.679 70.9541 91.8049 71.4977 92.0568C72.0446 92.3054 72.4738 92.6518 72.7853 93.0959C73.0969 93.5367 73.2576 94.0438 73.2676 94.6172H71.4927ZM78.7848 94.3636V95.7557H74.3949V94.3636H78.7848ZM75.4787 92.5341H77.2784V99.7031C77.2784 99.9451 77.3149 100.131 77.3878 100.26C77.464 100.386 77.5634 100.472 77.6861 100.518C77.8087 100.565 77.9446 100.588 78.0938 100.588C78.2064 100.588 78.3092 100.58 78.402 100.563C78.4981 100.547 78.571 100.532 78.6207 100.518L78.924 101.925C78.8279 101.959 78.6903 101.995 78.5114 102.035C78.3357 102.075 78.1203 102.098 77.8651 102.104C77.4143 102.118 77.0083 102.05 76.647 101.901C76.2857 101.748 75.9991 101.513 75.7869 101.195C75.5781 100.876 75.4754 100.479 75.4787 100.001V92.5341ZM82.4874 102.154C82.0035 102.154 81.5676 102.068 81.1799 101.896C80.7954 101.72 80.4905 101.461 80.2651 101.12C80.043 100.779 79.932 100.358 79.932 99.8572C79.932 99.4264 80.0115 99.0701 80.1706 98.7884C80.3297 98.5066 80.5468 98.2812 80.8219 98.1122C81.097 97.9432 81.4069 97.8156 81.7516 97.7294C82.0996 97.6399 82.4592 97.5753 82.8304 97.5355C83.2779 97.4891 83.6408 97.4477 83.9192 97.4112C84.1976 97.3714 84.3998 97.3118 84.5257 97.2322C84.655 97.1494 84.7196 97.0218 84.7196 96.8494V96.8196C84.7196 96.4451 84.6086 96.1551 84.3865 95.9496C84.1645 95.7441 83.8446 95.6413 83.427 95.6413C82.9862 95.6413 82.6365 95.7375 82.378 95.9297C82.1228 96.1219 81.9505 96.349 81.861 96.6108L80.1806 96.3722C80.3132 95.9081 80.5319 95.5204 80.8368 95.2088C81.1417 94.8939 81.5146 94.6586 81.9554 94.5028C82.3962 94.3438 82.8835 94.2642 83.4171 94.2642C83.785 94.2642 84.1512 94.3073 84.5158 94.3935C84.8804 94.4796 85.2135 94.6222 85.5151 94.821C85.8167 95.0166 86.0587 95.2834 86.2409 95.6214C86.4266 95.9595 86.5194 96.3821 86.5194 96.8892V102H84.7892V100.951H84.7296C84.6202 101.163 84.4661 101.362 84.2672 101.548C84.0717 101.73 83.8248 101.877 83.5265 101.99C83.2315 102.099 82.8851 102.154 82.4874 102.154ZM82.9547 100.832C83.316 100.832 83.6292 100.76 83.8944 100.618C84.1595 100.472 84.3633 100.28 84.5059 100.041C84.6517 99.8026 84.7246 99.5424 84.7246 99.2607V98.3608C84.6683 98.4072 84.5721 98.4503 84.4363 98.4901C84.3037 98.5298 84.1545 98.5646 83.9888 98.5945C83.8231 98.6243 83.659 98.6508 83.4966 98.674C83.3342 98.6972 83.1934 98.7171 83.074 98.7337C82.8056 98.7701 82.5653 98.8298 82.3532 98.9126C82.141 98.9955 81.9737 99.1115 81.851 99.2607C81.7284 99.4065 81.6671 99.5954 81.6671 99.8274C81.6671 100.159 81.7881 100.409 82.03 100.578C82.272 100.747 82.5802 100.832 82.9547 100.832ZM91.66 102.149C90.8977 102.149 90.2431 101.982 89.6962 101.647C89.1526 101.312 88.7334 100.85 88.4384 100.26C88.1467 99.6667 88.0009 98.9839 88.0009 98.2116C88.0009 97.4361 88.15 96.7517 88.4483 96.1584C88.7466 95.5618 89.1676 95.0978 89.7111 94.7663C90.258 94.4316 90.9043 94.2642 91.65 94.2642C92.2698 94.2642 92.8184 94.3786 93.2956 94.6072C93.7762 94.8326 94.159 95.1525 94.4441 95.5668C94.7291 95.9777 94.8915 96.4583 94.9313 97.0085H93.2111C93.1415 96.6406 92.9758 96.334 92.714 96.0888C92.4554 95.8402 92.1091 95.7159 91.6749 95.7159C91.307 95.7159 90.9838 95.8153 90.7054 96.0142C90.427 96.2098 90.2099 96.4915 90.0542 96.8594C89.9017 97.2273 89.8255 97.6681 89.8255 98.1818C89.8255 98.7022 89.9017 99.1496 90.0542 99.5241C90.2066 99.8954 90.4204 100.182 90.6955 100.384C90.9739 100.583 91.3004 100.683 91.6749 100.683C91.94 100.683 92.177 100.633 92.3858 100.533C92.598 100.431 92.7753 100.283 92.9178 100.091C93.0603 99.8987 93.1581 99.665 93.2111 99.3899H94.9313C94.8882 99.9302 94.7291 100.409 94.454 100.827C94.1789 101.241 93.8044 101.566 93.3304 101.801C92.8565 102.033 92.2997 102.149 91.66 102.149ZM98.0497 99.6037L98.0447 97.4311H98.3331L101.077 94.3636H103.18L99.8047 98.1222H99.4318L98.0497 99.6037ZM96.4091 102V91.8182H98.2088V102H96.4091ZM101.202 102L98.7159 98.5249L99.929 97.2571L103.354 102H101.202ZM111.382 102H107.932V91.8182H111.452C112.463 91.8182 113.331 92.022 114.057 92.4297C114.786 92.834 115.346 93.4157 115.737 94.1747C116.128 94.9337 116.324 95.8419 116.324 96.8991C116.324 97.9598 116.127 98.8712 115.732 99.6335C115.341 100.396 114.776 100.981 114.037 101.388C113.301 101.796 112.416 102 111.382 102ZM109.776 100.404H111.293C112.002 100.404 112.594 100.275 113.068 100.016C113.542 99.7545 113.898 99.3651 114.137 98.848C114.375 98.3277 114.494 97.678 114.494 96.8991C114.494 96.1203 114.375 95.474 114.137 94.9602C113.898 94.4432 113.545 94.0571 113.078 93.8018C112.614 93.5433 112.037 93.4141 111.347 93.4141H109.776V100.404ZM121.378 102.149C120.612 102.149 119.951 101.99 119.394 101.672C118.84 101.35 118.415 100.896 118.116 100.31C117.818 99.7197 117.669 99.0253 117.669 98.2266C117.669 97.4411 117.818 96.7517 118.116 96.1584C118.418 95.5618 118.839 95.0978 119.379 94.7663C119.919 94.4316 120.554 94.2642 121.283 94.2642C121.754 94.2642 122.198 94.3404 122.616 94.4929C123.037 94.642 123.408 94.8741 123.729 95.1889C124.054 95.5038 124.309 95.9048 124.495 96.392C124.68 96.8759 124.773 97.4527 124.773 98.1222V98.674H118.514V97.4609H123.048C123.045 97.1162 122.97 96.8097 122.824 96.5412C122.679 96.2694 122.475 96.0556 122.213 95.8999C121.954 95.7441 121.653 95.6662 121.308 95.6662C120.94 95.6662 120.617 95.7557 120.339 95.9347C120.06 96.1103 119.843 96.3423 119.687 96.6307C119.535 96.9157 119.457 97.2289 119.454 97.5703V98.6293C119.454 99.0734 119.535 99.4545 119.697 99.7727C119.86 100.088 120.087 100.33 120.378 100.499C120.67 100.664 121.011 100.747 121.403 100.747C121.664 100.747 121.901 100.711 122.113 100.638C122.326 100.562 122.51 100.451 122.665 100.305C122.821 100.159 122.939 99.9782 123.018 99.7628L124.699 99.9517C124.593 100.396 124.39 100.784 124.092 101.115C123.797 101.443 123.419 101.698 122.959 101.881C122.498 102.06 121.971 102.149 121.378 102.149ZM132.898 94.3636L130.179 102H128.19L125.471 94.3636H127.39L129.145 100.036H129.224L130.984 94.3636H132.898ZM137.264 102.149C136.499 102.149 135.838 101.99 135.281 101.672C134.727 101.35 134.301 100.896 134.003 100.31C133.705 99.7197 133.556 99.0253 133.556 98.2266C133.556 97.4411 133.705 96.7517 134.003 96.1584C134.305 95.5618 134.726 95.0978 135.266 94.7663C135.806 94.4316 136.441 94.2642 137.17 94.2642C137.641 94.2642 138.085 94.3404 138.502 94.4929C138.923 94.642 139.294 94.8741 139.616 95.1889C139.941 95.5038 140.196 95.9048 140.382 96.392C140.567 96.8759 140.66 97.4527 140.66 98.1222V98.674H134.401V97.4609H138.935C138.932 97.1162 138.857 96.8097 138.711 96.5412C138.565 96.2694 138.361 96.0556 138.1 95.8999C137.841 95.7441 137.539 95.6662 137.195 95.6662C136.827 95.6662 136.504 95.7557 136.225 95.9347C135.947 96.1103 135.73 96.3423 135.574 96.6307C135.422 96.9157 135.344 97.2289 135.34 97.5703V98.6293C135.34 99.0734 135.422 99.4545 135.584 99.7727C135.746 100.088 135.973 100.33 136.265 100.499C136.557 100.664 136.898 100.747 137.289 100.747C137.551 100.747 137.788 100.711 138 100.638C138.212 100.562 138.396 100.451 138.552 100.305C138.708 100.159 138.825 99.9782 138.905 99.7628L140.585 99.9517C140.479 100.396 140.277 100.784 139.979 101.115C139.684 101.443 139.306 101.698 138.845 101.881C138.385 102.06 137.858 102.149 137.264 102.149ZM143.982 91.8182V102H142.183V91.8182H143.982ZM149.164 102.149C148.418 102.149 147.772 101.985 147.225 101.657C146.678 101.329 146.254 100.87 145.952 100.28C145.654 99.6899 145.505 99.0005 145.505 98.2116C145.505 97.4228 145.654 96.7318 145.952 96.1385C146.254 95.5452 146.678 95.0845 147.225 94.7564C147.772 94.4283 148.418 94.2642 149.164 94.2642C149.91 94.2642 150.556 94.4283 151.103 94.7564C151.65 95.0845 152.072 95.5452 152.371 96.1385C152.672 96.7318 152.823 97.4228 152.823 98.2116C152.823 99.0005 152.672 99.6899 152.371 100.28C152.072 100.87 151.65 101.329 151.103 101.657C150.556 101.985 149.91 102.149 149.164 102.149ZM149.174 100.707C149.578 100.707 149.916 100.596 150.188 100.374C150.46 100.149 150.662 99.8473 150.795 99.4695C150.93 99.0916 150.998 98.6707 150.998 98.2067C150.998 97.7393 150.93 97.3168 150.795 96.9389C150.662 96.5578 150.46 96.2545 150.188 96.0291C149.916 95.8037 149.578 95.6911 149.174 95.6911C148.76 95.6911 148.415 95.8037 148.14 96.0291C147.868 96.2545 147.664 96.5578 147.528 96.9389C147.396 97.3168 147.329 97.7393 147.329 98.2067C147.329 98.6707 147.396 99.0916 147.528 99.4695C147.664 99.8473 147.868 100.149 148.14 100.374C148.415 100.596 148.76 100.707 149.174 100.707ZM154.35 104.864V94.3636H156.12V95.6264H156.225C156.318 95.4408 156.449 95.2436 156.618 95.0348C156.787 94.8227 157.015 94.642 157.304 94.4929C157.592 94.3404 157.96 94.2642 158.407 94.2642C158.997 94.2642 159.529 94.415 160.003 94.7166C160.48 95.0149 160.858 95.4574 161.137 96.044C161.418 96.6274 161.559 97.3433 161.559 98.1918C161.559 99.0303 161.422 99.7429 161.147 100.33C160.872 100.916 160.497 101.364 160.023 101.672C159.549 101.98 159.012 102.134 158.412 102.134C157.975 102.134 157.612 102.061 157.324 101.915C157.035 101.77 156.803 101.594 156.627 101.388C156.455 101.18 156.321 100.982 156.225 100.797H156.15V104.864H154.35ZM156.115 98.1818C156.115 98.6757 156.185 99.1082 156.324 99.4794C156.467 99.8506 156.671 100.141 156.936 100.349C157.204 100.555 157.529 100.658 157.91 100.658C158.308 100.658 158.641 100.552 158.909 100.339C159.178 100.124 159.38 99.8307 159.516 99.4595C159.655 99.085 159.725 98.6591 159.725 98.1818C159.725 97.7079 159.657 97.2869 159.521 96.919C159.385 96.5511 159.183 96.2628 158.914 96.054C158.646 95.8452 158.311 95.7408 157.91 95.7408C157.526 95.7408 157.199 95.8419 156.931 96.044C156.662 96.2462 156.458 96.5296 156.319 96.8942C156.183 97.2588 156.115 97.688 156.115 98.1818ZM166.481 102.149C165.716 102.149 165.054 101.99 164.498 101.672C163.944 101.35 163.518 100.896 163.22 100.31C162.922 99.7197 162.772 99.0253 162.772 98.2266C162.772 97.4411 162.922 96.7517 163.22 96.1584C163.521 95.5618 163.942 95.0978 164.483 94.7663C165.023 94.4316 165.658 94.2642 166.387 94.2642C166.857 94.2642 167.301 94.3404 167.719 94.4929C168.14 94.642 168.511 94.8741 168.833 95.1889C169.158 95.5038 169.413 95.9048 169.598 96.392C169.784 96.8759 169.877 97.4527 169.877 98.1222V98.674H163.618V97.4609H168.152C168.148 97.1162 168.074 96.8097 167.928 96.5412C167.782 96.2694 167.578 96.0556 167.316 95.8999C167.058 95.7441 166.756 95.6662 166.412 95.6662C166.044 95.6662 165.721 95.7557 165.442 95.9347C165.164 96.1103 164.947 96.3423 164.791 96.6307C164.638 96.9157 164.56 97.2289 164.557 97.5703V98.6293C164.557 99.0734 164.638 99.4545 164.801 99.7727C164.963 100.088 165.19 100.33 165.482 100.499C165.774 100.664 166.115 100.747 166.506 100.747C166.768 100.747 167.005 100.711 167.217 100.638C167.429 100.562 167.613 100.451 167.769 100.305C167.925 100.159 168.042 99.9782 168.122 99.7628L169.802 99.9517C169.696 100.396 169.494 100.784 169.196 101.115C168.901 101.443 168.523 101.698 168.062 101.881C167.601 102.06 167.074 102.149 166.481 102.149ZM171.399 102V94.3636H173.144V95.6364H173.224C173.363 95.1955 173.602 94.8558 173.94 94.6172C174.281 94.3752 174.671 94.2543 175.108 94.2543C175.208 94.2543 175.319 94.2592 175.441 94.2692C175.567 94.2758 175.672 94.2874 175.754 94.304V95.9595C175.678 95.933 175.557 95.9098 175.392 95.8899C175.229 95.8667 175.072 95.8551 174.919 95.8551C174.591 95.8551 174.296 95.9264 174.034 96.0689C173.776 96.2081 173.572 96.402 173.423 96.6506C173.274 96.8991 173.199 97.1858 173.199 97.5107V102H171.399Z" fill="#264754"/>
<defs>
<clipPath id="clip0_1017_2102">
<rect width="122.88" height="87.69" fill="white" transform="translate(27)"/>
</clipPath>
</defs>
</svg>
